<svg xmlns="http://www.w3.org/2000/svg" viewBox="0 0 512 512" fill="none">
  <rect width="512" height="512" fill="#10b981" rx="128"/>
  <path fill="#fff" d="M256 96c-88.4 0-160 71.6-160 160s71.6 160 160 160 160-71.6 160-160S344.4 96 256 96zm0 280c-66.3 0-120-53.7-120-120s53.7-120 120-120 120 53.7 120 120-53.7 120-120 120z"/>
  <circle cx="256" cy="256" r="80" fill="#fff"/>
  <path fill="#10b981" d="M256 196c-33.1 0-60 26.9-60 60s26.9 60 60 60 60-26.9 60-60-26.9-60-60-60zm0 90c-16.5 0-30-13.5-30-30s13.5-30 30-30 30 13.5 30 30-13.5 30-30 30z"/>
  <path fill="#fff" d="M310 220h-20v-40c0-11-9-20-20-20s-20 9-20 20v40h-20c-11 0-20 9-20 20s9 20 20 20h20v20c0 11 9 20 20 20s20-9 20-20v-20h20c11 0 20-9 20-20s-9-20-20-20z"/>
</svg>
